<svg data-v-423bf9ae="" xmlns="http://www.w3.org/2000/svg" viewBox="0 0 269.4339747260436 60" class="font"><!----><!----><!----><g data-v-423bf9ae="" id="f3e0eb36-2c78-440c-81a9-180b92af78db" fill="white" transform="matrix(6.659267425537109,0,0,6.659267425537109,-0.6659389734268188,-23.973360061645508)"><path d="M1.48 4.79L2.35 4.61L2.35 6.34L3.99 6.34L3.99 6.95L2.36 6.95L2.36 10.38L2.36 10.38Q2.36 10.73 2.37 11.00L2.37 11.00L2.37 11.00Q2.37 11.28 2.43 11.48L2.43 11.48L2.43 11.48Q2.49 11.68 2.62 11.78L2.62 11.78L2.62 11.78Q2.75 11.89 2.99 11.89L2.99 11.89L2.99 11.89Q3.09 11.89 3.19 11.85L3.19 11.85L3.19 11.85Q3.28 11.81 3.35 11.72L3.35 11.72L3.35 11.72Q3.42 11.63 3.47 11.49L3.47 11.49L3.47 11.49Q3.51 11.35 3.51 11.15L3.51 11.15L4.14 11.09L4.14 11.09Q4.14 11.49 4.02 11.78L4.02 11.78L4.02 11.78Q3.91 12.07 3.72 12.25L3.72 12.25L3.72 12.25Q3.53 12.43 3.28 12.52L3.28 12.52L3.28 12.52Q3.03 12.61 2.75 12.61L2.75 12.61L2.75 12.61Q2.27 12.61 1.97 12.45L1.97 12.45L1.97 12.45Q1.67 12.29 1.51 12.01L1.51 12.01L1.51 12.01Q1.34 11.74 1.28 11.33L1.28 11.33L1.28 11.33Q1.22 10.93 1.22 10.44L1.22 10.44L1.22 6.95L0.10 6.95L0.10 6.41L0.10 6.41Q0.27 6.41 0.48 6.39L0.48 6.39L0.48 6.39Q0.69 6.37 0.88 6.36L0.88 6.36L0.88 6.36Q1.11 6.34 1.33 6.32L1.33 6.32L1.33 6.32Q1.34 6.27 1.35 6.14L1.35 6.14L1.35 6.14Q1.37 6.02 1.38 5.85L1.38 5.85L1.38 5.85Q1.39 5.68 1.42 5.50L1.42 5.50L1.42 5.50Q1.44 5.32 1.45 5.16L1.45 5.16L1.45 5.16Q1.46 5.01 1.47 4.90L1.47 4.90L1.47 4.90Q1.48 4.80 1.48 4.79L1.48 4.79ZM10.17 11.46L10.17 8.83L10.17 8.83Q10.17 8.33 10.12 7.96L10.12 7.96L10.12 7.96Q10.07 7.59 9.93 7.35L9.93 7.35L9.93 7.35Q9.79 7.12 9.55 7.01L9.55 7.01L9.55 7.01Q9.30 6.90 8.91 6.90L8.91 6.90L8.91 6.90Q8.54 6.90 8.23 7.01L8.23 7.01L8.23 7.01Q7.91 7.13 7.66 7.31L7.66 7.31L7.66 7.31Q7.41 7.49 7.23 7.69L7.23 7.69L7.23 7.69Q7.04 7.90 6.93 8.07L6.93 8.07L6.93 11.56L6.93 11.56Q6.93 11.67 6.98 11.73L6.98 11.73L6.98 11.73Q7.03 11.79 7.14 11.82L7.14 11.82L7.14 11.82Q7.26 11.85 7.46 11.85L7.46 11.85L7.46 11.85Q7.66 11.85 7.97 11.85L7.97 11.85L7.97 12.46L7.97 12.46Q7.77 12.46 7.59 12.46L7.59 12.46L7.59 12.46Q7.40 12.46 7.21 12.46L7.21 12.46L7.21 12.46Q7.01 12.46 6.79 12.46L6.79 12.46L6.79 12.46Q6.57 12.46 6.31 12.45L6.31 12.45L6.31 12.45Q6.07 12.45 5.87 12.45L5.87 12.45L5.87 12.45Q5.66 12.46 5.47 12.46L5.47 12.46L5.47 12.46Q5.28 12.46 5.11 12.46L5.11 12.46L5.11 12.46Q4.93 12.46 4.74 12.46L4.74 12.46L4.74 11.85L4.74 11.85Q5.13 11.85 5.34 11.84L5.34 11.84L5.34 11.84Q5.55 11.82 5.65 11.78L5.65 11.78L5.65 11.78Q5.75 11.74 5.77 11.68L5.77 11.68L5.77 11.68Q5.79 11.61 5.79 11.52L5.79 11.52L5.79 4.51L5.79 4.51Q5.79 4.41 5.72 4.35L5.72 4.35L5.72 4.35Q5.65 4.29 5.51 4.27L5.51 4.27L5.51 4.27Q5.38 4.25 5.20 4.24L5.20 4.24L5.20 4.24Q5.01 4.24 4.79 4.24L4.79 4.24L4.79 3.62L4.79 3.62Q4.91 3.62 5.04 3.63L5.04 3.63L5.04 3.63Q5.17 3.63 5.35 3.63L5.35 3.63L5.35 3.63Q5.73 3.63 6.12 3.62L6.12 3.62L6.12 3.62Q6.51 3.61 6.92 3.60L6.92 3.60L6.92 3.60Q6.92 3.99 6.93 4.45L6.93 4.45L6.93 4.45Q6.93 4.91 6.93 5.38L6.93 5.38L6.93 5.38Q6.93 5.86 6.93 6.32L6.93 6.32L6.93 6.32Q6.93 6.78 6.93 7.18L6.93 7.18L6.93 7.18Q7.42 6.67 8.02 6.43L8.02 6.43L8.02 6.43Q8.62 6.19 9.34 6.19L9.34 6.19L9.34 6.19Q9.98 6.19 10.37 6.38L10.37 6.38L10.37 6.38Q10.76 6.58 10.97 6.98L10.97 6.98L10.97 6.98Q11.18 7.37 11.26 7.96L11.26 7.96L11.26 7.96Q11.33 8.54 11.33 9.33L11.33 9.33L11.33 11.44L11.33 11.44Q11.33 11.60 11.38 11.68L11.38 11.68L11.38 11.68Q11.42 11.76 11.54 11.80L11.54 11.80L11.54 11.80Q11.65 11.84 11.83 11.85L11.83 11.85L11.83 11.85Q12.02 11.85 12.30 11.85L12.30 11.85L12.30 12.46L12.30 12.46Q12.11 12.46 11.94 12.46L11.94 12.46L11.94 12.46Q11.76 12.46 11.58 12.46L11.58 12.46L11.58 12.46Q11.40 12.46 11.19 12.46L11.19 12.46L11.19 12.46Q10.98 12.46 10.73 12.45L10.73 12.45L10.73 12.45Q10.24 12.45 9.87 12.46L9.87 12.46L9.87 12.46Q9.51 12.46 9.14 12.46L9.14 12.46L9.14 11.85L9.14 11.85Q9.44 11.85 9.64 11.83L9.64 11.83L9.64 11.83Q9.84 11.82 9.96 11.78L9.96 11.78L9.96 11.78Q10.08 11.74 10.12 11.67L10.12 11.67L10.12 11.67Q10.17 11.59 10.17 11.46L10.17 11.46ZM17.90 6.23L17.90 7.63L17.49 7.63L17.49 7.63Q17.35 7.30 17.14 7.18L17.14 7.18L17.14 7.18Q16.94 7.06 16.58 7.06L16.58 7.06L16.58 7.06Q16.25 7.06 15.97 7.22L15.97 7.22L15.97 7.22Q15.69 7.38 15.48 7.67L15.48 7.67L15.48 7.67Q15.28 7.96 15.17 8.36L15.17 8.36L15.17 8.36Q15.05 8.77 15.05 9.27L15.05 9.27L15.05 9.27Q15.04 9.28 15.04 9.44L15.04 9.44L15.04 9.44Q15.04 9.60 15.04 9.84L15.04 9.84L15.04 9.84Q15.03 10.08 15.03 10.35L15.03 10.35L15.03 10.35Q15.03 10.63 15.03 10.88L15.03 10.88L15.03 10.88Q15.03 11.12 15.03 11.29L15.03 11.29L15.03 11.29Q15.03 11.46 15.03 11.47L15.03 11.47L15.03 11.47Q15.03 11.61 15.09 11.69L15.09 11.69L15.09 11.69Q15.15 11.77 15.29 11.81L15.29 11.81L15.29 11.81Q15.42 11.85 15.65 11.85L15.65 11.85L15.65 11.85Q15.87 11.85 16.20 11.85L16.20 11.85L16.20 12.46L16.20 12.46Q15.98 12.46 15.78 12.46L15.78 12.46L15.78 12.46Q15.58 12.46 15.36 12.46L15.36 12.46L15.36 12.46Q15.14 12.46 14.90 12.45L14.90 12.45L14.90 12.45Q14.66 12.45 14.36 12.45L14.36 12.45L14.36 12.45Q14.11 12.45 13.90 12.45L13.90 12.45L13.90 12.45Q13.70 12.46 13.52 12.46L13.52 12.46L13.52 12.46Q13.34 12.46 13.17 12.46L13.17 12.46L13.17 12.46Q13.00 12.46 12.81 12.46L12.81 12.46L12.81 11.85L12.81 11.85Q13.20 11.85 13.42 11.84L13.42 11.84L13.42 11.84Q13.63 11.82 13.73 11.77L13.73 11.77L13.73 11.77Q13.84 11.72 13.85 11.63L13.85 11.63L13.85 11.63Q13.87 11.55 13.87 11.41L13.87 11.41L13.87 7.27L13.87 7.27Q13.87 7.15 13.83 7.09L13.83 7.09L13.83 7.09Q13.79 7.02 13.68 6.99L13.68 6.99L13.68 6.99Q13.57 6.96 13.37 6.96L13.37 6.96L13.37 6.96Q13.17 6.95 12.84 6.95L12.84 6.95L12.84 6.34L12.84 6.34Q12.92 6.34 13.08 6.35L13.08 6.35L13.08 6.35Q13.24 6.35 13.40 6.35L13.40 6.35L13.80 6.35L13.80 6.35Q14.09 6.35 14.38 6.34L14.38 6.34L14.38 6.34Q14.67 6.32 14.98 6.32L14.98 6.32L14.98 7.56L14.98 7.56Q15.31 6.92 15.89 6.55L15.89 6.55L15.89 6.55Q16.47 6.19 17.27 6.19L17.27 6.19L17.27 6.19Q17.58 6.19 17.90 6.23L17.90 6.23ZM25.07 9.49L24.66 9.61L19.82 9.61L19.82 9.61Q19.83 10.16 20.00 10.58L20.00 10.58L20.00 10.58Q20.16 10.99 20.46 11.28L20.46 11.28L20.46 11.28Q20.76 11.57 21.18 11.73L21.18 11.73L21.18 11.73Q21.60 11.89 22.11 11.89L22.11 11.89L22.11 11.89Q22.83 11.89 23.36 11.59L23.36 11.59L23.36 11.59Q23.88 11.30 24.17 10.68L24.17 10.68L25.00 10.81L25.00 10.81Q24.68 11.68 23.90 12.14L23.90 12.14L23.90 12.14Q23.11 12.61 21.96 12.61L21.96 12.61L21.96 12.61Q21.18 12.61 20.57 12.37L20.57 12.37L20.57 12.37Q19.95 12.14 19.53 11.72L19.53 11.72L19.53 11.72Q19.10 11.29 18.87 10.72L18.87 10.72L18.87 10.72Q18.65 10.15 18.65 9.42L18.65 9.42L18.65 9.42Q18.65 8.68 18.88 8.09L18.88 8.09L18.88 8.09Q19.11 7.50 19.54 7.08L19.54 7.08L19.54 7.08Q19.96 6.65 20.56 6.42L20.56 6.42L20.56 6.42Q21.16 6.19 21.89 6.19L21.89 6.19L21.89 6.19Q22.63 6.19 23.21 6.41L23.21 6.41L23.21 6.41Q23.80 6.63 24.21 7.05L24.21 7.05L24.21 7.05Q24.62 7.48 24.85 8.09L24.85 8.09L24.85 8.09Q25.07 8.70 25.07 9.49L25.07 9.49ZM19.83 9.00L23.97 9.00L23.97 9.00Q23.88 7.96 23.35 7.43L23.35 7.43L23.35 7.43Q22.82 6.90 21.90 6.90L21.90 6.90L21.90 6.90Q21.47 6.90 21.12 7.04L21.12 7.04L21.12 7.04Q20.76 7.19 20.49 7.45L20.49 7.45L20.49 7.45Q20.23 7.72 20.06 8.10L20.06 8.10L20.06 8.10Q19.89 8.48 19.83 9.00L19.83 9.00ZM25.88 12.46L25.88 11.85L25.88 11.85Q26.17 11.85 26.37 11.84L26.37 11.84L26.37 11.84Q26.57 11.83 26.70 11.78L26.70 11.78L26.70 11.78Q26.82 11.74 26.88 11.65L26.88 11.65L26.88 11.65Q26.93 11.55 26.93 11.39L26.93 11.39L26.93 4.58L26.93 4.58Q26.93 4.45 26.87 4.39L26.87 4.39L26.87 4.39Q26.81 4.32 26.68 4.29L26.68 4.29L26.68 4.29Q26.56 4.26 26.37 4.25L26.37 4.25L26.37 4.25Q26.17 4.25 25.92 4.25L25.92 4.25L25.92 3.63L25.92 3.63Q26.28 3.63 26.57 3.63L26.57 3.63L26.57 3.63Q26.86 3.63 27.11 3.63L27.11 3.63L27.11 3.63Q27.36 3.62 27.59 3.62L27.59 3.62L27.59 3.62Q27.82 3.61 28.08 3.60L28.08 3.60L28.08 9.07L29.92 7.68L29.92 7.68Q30.61 7.19 30.61 7.05L30.61 7.05L30.61 7.05Q30.61 7.01 30.56 6.99L30.56 6.99L30.56 6.99Q30.50 6.97 30.41 6.96L30.41 6.96L30.41 6.96Q30.32 6.95 30.19 6.95L30.19 6.95L30.19 6.95Q30.06 6.95 29.93 6.95L29.93 6.95L29.95 6.34L29.95 6.34Q30.30 6.35 30.58 6.35L30.58 6.35L30.58 6.35Q30.86 6.36 31.09 6.36L31.09 6.36L31.09 6.36Q31.47 6.36 31.87 6.35L31.87 6.35L31.87 6.35Q32.27 6.35 32.80 6.34L32.80 6.34L32.80 6.95L32.80 6.95Q32.52 6.95 32.36 6.96L32.36 6.96L32.36 6.96Q32.20 6.97 32.06 7.03L32.06 7.03L32.06 7.03Q31.91 7.09 31.71 7.23L31.71 7.23L31.71 7.23Q31.51 7.36 31.16 7.63L31.16 7.63L29.24 9.05L31.90 11.50L31.90 11.50Q32.15 11.73 32.34 11.80L32.34 11.80L32.34 11.80Q32.54 11.86 32.76 11.86L32.76 11.86L32.76 11.86Q32.84 11.86 32.92 11.86L32.92 11.86L32.92 11.86Q32.99 11.85 33.09 11.85L33.09 11.85L33.09 12.46L33.09 12.46Q32.75 12.46 32.42 12.46L32.42 12.46L32.42 12.46Q32.09 12.45 31.71 12.45L31.71 12.45L31.71 12.45Q31.46 12.45 31.24 12.45L31.24 12.45L31.24 12.45Q31.03 12.46 30.82 12.46L30.82 12.46L30.82 12.46Q30.62 12.46 30.42 12.46L30.42 12.46L30.42 12.46Q30.21 12.46 30.00 12.46L30.00 12.46L30.00 11.85L30.00 11.85Q30.37 11.85 30.52 11.84L30.52 11.84L30.52 11.84Q30.67 11.83 30.67 11.74L30.67 11.74L30.67 11.74Q30.67 11.67 30.57 11.56L30.57 11.56L30.57 11.56Q30.47 11.46 30.31 11.31L30.31 11.31L28.37 9.52L28.08 9.71L28.07 11.40L28.07 11.40Q28.07 11.54 28.11 11.63L28.11 11.63L28.11 11.63Q28.15 11.72 28.27 11.77L28.27 11.77L28.27 11.77Q28.38 11.82 28.59 11.84L28.59 11.84L28.59 11.84Q28.80 11.85 29.14 11.85L29.14 11.85L29.14 12.46L29.14 12.46Q28.79 12.46 28.42 12.46L28.42 12.46L28.42 12.46Q28.05 12.46 27.58 12.45L27.58 12.45L27.58 12.45Q27.55 12.45 27.34 12.45L27.34 12.45L27.34 12.45Q27.13 12.46 26.87 12.46L26.87 12.46L26.87 12.46Q26.60 12.46 26.32 12.46L26.32 12.46L26.32 12.46Q26.04 12.46 25.88 12.46L25.88 12.46ZM33.35 12.46L33.35 11.85L33.35 11.85Q33.64 11.85 33.84 11.84L33.84 11.84L33.84 11.84Q34.04 11.83 34.17 11.78L34.17 11.78L34.17 11.78Q34.30 11.74 34.35 11.65L34.35 11.65L34.35 11.65Q34.41 11.55 34.41 11.39L34.41 11.39L34.41 4.58L34.41 4.58Q34.41 4.45 34.34 4.39L34.34 4.39L34.34 4.39Q34.28 4.32 34.16 4.29L34.16 4.29L34.16 4.29Q34.03 4.26 33.84 4.25L33.84 4.25L33.84 4.25Q33.65 4.25 33.39 4.25L33.39 4.25L33.39 3.63L33.39 3.63Q33.76 3.63 34.04 3.63L34.04 3.63L34.04 3.63Q34.33 3.63 34.58 3.63L34.58 3.63L34.58 3.63Q34.83 3.62 35.06 3.62L35.06 3.62L35.06 3.62Q35.29 3.61 35.55 3.60L35.55 3.60L35.55 9.07L37.39 7.68L37.39 7.68Q38.08 7.19 38.08 7.05L38.08 7.05L38.08 7.05Q38.08 7.01 38.03 6.99L38.03 6.99L38.03 6.99Q37.97 6.97 37.88 6.96L37.88 6.96L37.88 6.96Q37.79 6.95 37.66 6.95L37.66 6.95L37.66 6.95Q37.54 6.95 37.40 6.95L37.40 6.95L37.42 6.34L37.42 6.34Q37.78 6.35 38.05 6.35L38.05 6.35L38.05 6.35Q38.33 6.36 38.56 6.36L38.56 6.36L38.56 6.36Q38.94 6.36 39.34 6.35L39.34 6.35L39.34 6.35Q39.74 6.35 40.27 6.34L40.27 6.34L40.27 6.95L40.27 6.95Q39.99 6.95 39.83 6.96L39.83 6.96L39.83 6.96Q39.68 6.97 39.53 7.03L39.53 7.03L39.53 7.03Q39.38 7.09 39.18 7.23L39.18 7.23L39.18 7.23Q38.99 7.36 38.63 7.63L38.63 7.63L36.71 9.05L39.38 11.50L39.38 11.50Q39.62 11.73 39.82 11.80L39.82 11.80L39.82 11.80Q40.01 11.86 40.24 11.86L40.24 11.86L40.24 11.86Q40.31 11.86 40.39 11.86L40.39 11.86L40.39 11.86Q40.46 11.85 40.56 11.85L40.56 11.85L40.56 12.46L40.56 12.46Q40.22 12.46 39.89 12.46L39.89 12.46L39.89 12.46Q39.57 12.45 39.18 12.45L39.18 12.45L39.18 12.45Q38.93 12.45 38.72 12.45L38.72 12.45L38.72 12.45Q38.50 12.46 38.29 12.46L38.29 12.46L38.29 12.46Q38.09 12.46 37.89 12.46L37.89 12.46L37.89 12.46Q37.69 12.46 37.47 12.46L37.47 12.46L37.47 11.85L37.47 11.85Q37.84 11.85 37.99 11.84L37.99 11.84L37.99 11.84Q38.14 11.83 38.14 11.74L38.14 11.74L38.14 11.74Q38.14 11.67 38.05 11.56L38.05 11.56L38.05 11.56Q37.95 11.46 37.78 11.31L37.78 11.31L35.84 9.52L35.55 9.71L35.54 11.40L35.54 11.40Q35.54 11.54 35.58 11.63L35.58 11.63L35.58 11.63Q35.62 11.72 35.74 11.77L35.74 11.77L35.74 11.77Q35.85 11.82 36.06 11.84L36.06 11.84L36.06 11.84Q36.27 11.85 36.61 11.85L36.61 11.85L36.61 12.46L36.61 12.46Q36.26 12.46 35.89 12.46L35.89 12.46L35.89 12.46Q35.53 12.46 35.05 12.45L35.05 12.45L35.05 12.45Q35.02 12.45 34.81 12.45L34.81 12.45L34.81 12.45Q34.60 12.46 34.34 12.46L34.34 12.46L34.34 12.46Q34.07 12.46 33.79 12.46L33.79 12.46L33.79 12.46Q33.52 12.46 33.35 12.46L33.35 12.46Z"></path></g><!----><!----></svg>